PathFileType	4	(X/Y/Z)	D:\TRACE\v60_Jaco2_6-2-23\BothDRS_Motion2_10-v60.trc
DataRate	CameraRate	NumFrames	NumMarkers	Units	OrigDataRate	OrigDataStartFrame	OrigNumFrames
100.00	100.00	      17	9	mm	100.00	3751	      7500
Frame#	Time	front left toe			Front right toe			aft left toe			aft right toe			Arm			FL body			FR body			AL Body			AR Body			
		X1	Y1	Z1	X2	Y2	Z2	X3	Y3	Z3	X4	Y4	Z4	X5	Y5	Z5	X6	Y6	Z6	X7	Y7	Z7	X8	Y8	Z8	X9	Y9	Z9	

3751	37.500	-131.53317	129.11372	-307.10367	199.70195	41.38395	-323.75305	-193.85699	-5.83544	297.85822	247.51688	87.19261	316.37454	136.67549	1144.41699	-716.73419	-33.66825	603.67743	-447.13959	125.23399	595.68213	-446.21692	-43.29705	558.71088	498.61215	113.46252	544.09637	499.18771	
3752	37.510	-127.69927	117.89346	-303.38913	199.90788	41.69034	-323.49118	-193.89488	-5.93269	297.97223	254.31628	78.42110	319.31268	137.70644	1145.54028	-714.35736	-32.74551	604.36682	-445.79172	127.14692	596.42456	-444.54077	-41.26493	557.65588	500.06073	115.84133	543.05908	500.70261	
3753	37.520	-123.16283	106.03362	-299.75842	200.66042	42.19080	-323.08502	-193.89761	-6.20674	298.34564	260.18961	69.66116	321.90665	138.90372	1146.19067	-711.76984	-29.98532	604.74628	-443.96869	129.49451	597.44623	-443.69327	-39.63353	556.54736	501.50632	117.92764	542.11322	502.19000	
3754	37.530	-118.58141	95.07767	-295.91098	201.09795	42.57080	-322.70129	-194.14232	-6.25662	298.48923	266.50177	61.28266	324.32425	139.77983	1147.17847	-709.21039	-29.19120	605.35278	-442.50061	131.60948	598.17505	-441.67984	-37.31418	554.54858	502.52850	120.38371	541.19745	503.73285	
3755	37.540	-113.56276	84.31758	-292.28873	199.41418	42.47687	-322.84207	-194.33330	-6.40874	298.84250	272.12088	52.64117	327.12476	140.36665	1148.19055	-706.42090	-27.21502	605.19373	-440.64148	133.36494	598.39374	-439.99109	-32.41592	552.32275	503.77643	122.57372	540.13013	505.45242	
3756	37.550	-108.84098	73.95027	-288.71841	199.36630	42.80431	-322.56241	-194.43266	-6.75662	298.98959	276.80270	44.11674	330.06750	141.13608	1149.34094	-703.79999	-24.92366	605.24042	-438.59662	135.28467	598.88391	-438.12195	-29.88040	551.11469	505.61337	125.15424	539.48956	507.16165	
3757	37.560	-104.19849	64.05736	-285.00934	198.97929	43.00164	-322.39664	-194.43536	-6.87257	299.37000	280.48706	36.21216	333.60229	141.60815	1150.44177	-701.11578	-22.23098	604.83154	-436.27756	136.89919	599.01349	-435.71216	-29.63263	551.23389	508.37900	128.17578	538.79504	509.29135	
3758	37.570	-100.08939	55.20415	-281.04352	198.75914	43.10361	-322.20764	-194.54477	-6.91564	299.41144	284.30991	28.55499	337.46759	141.50006	1150.98572	-698.49689	-21.05954	605.02002	-434.39465	138.69913	599.44159	-433.74048	-26.84516	550.68732	511.15768	130.62407	537.94763	511.20401	
3759	37.580	-96.25545	47.13503	-276.58270	198.64371	43.24837	-321.97018	-194.54533	-6.98324	299.83807	287.63644	21.73936	341.59048	141.46472	1151.30786	-696.31403	-19.14145	605.01605	-432.33124	141.56473	599.84650	-431.73856	-23.41974	548.64441	512.64929	133.64229	537.51154	513.22614	
3760	37.590	-94.66979	45.76089	-275.31699	198.56125	43.22802	-321.84811	-194.65823	-6.97301	300.08405	291.26422	14.97272	345.35779	141.44258	1151.52905	-693.68494	-16.67232	604.41742	-429.72568	143.49864	599.80194	-429.52203	-18.47840	545.99756	514.29193	136.69876	536.65247	516.15265	
3761	37.600	-95.68559	43.27189	-277.58508	198.31206	43.15373	-321.83578	-194.76065	-6.98455	300.17712	295.38235	8.86296	349.29193	141.27982	1151.62195	-691.03113	-13.90368	604.31354	-426.74893	145.37796	599.89642	-426.76697	-15.11265	545.42841	516.63220	139.54164	535.70813	517.98907	
3762	37.610	-97.32558	44.83236	-275.68454	197.93822	43.11263	-321.69690	-194.77571	-7.01736	300.59073	298.58044	1.83721	352.94971	140.73514	1151.77966	-687.90546	-12.27764	605.21484	-424.06766	147.41875	600.74139	-423.98135	-14.80204	545.42603	520.41833	142.77510	534.62158	520.56067	
3763	37.620	-96.69641	45.80269	-275.97070	197.51649	43.60406	-321.21957	-195.42680	-6.39403	300.84158	300.43100	-4.48097	356.05719	141.00941	1152.27869	-684.60834	-10.90235	605.98389	-421.11258	149.27361	601.92212	-421.21097	-11.11580	544.58295	523.69843	146.31297	534.02539	523.24701	
3764	37.630	-96.96019	46.01656	-275.66660	197.36180	43.91250	-320.92447	-195.87828	-5.72047	301.01901	302.51266	-7.80375	352.52408	142.96353	1153.34497	-680.52148	-8.52981	606.06982	-417.95712	151.63980	602.40881	-418.62997	-7.82976	544.29840	526.31512	149.75189	534.69006	526.15771	
3765	37.640	-97.35468	46.08841	-274.79266	197.41989	44.80042	-320.60703	-195.01189	-4.92940	301.41544	302.31366	-8.03179	354.34946	144.20430	1154.75574	-676.63605	-6.50909	605.12903	-414.83060	153.69395	602.43933	-415.66388	-4.73729	545.62830	529.51593	152.51949	536.92804	529.28009	
3766	37.650	-95.73702	45.45674	-272.36292	198.77150	48.16698	-317.80194	-190.75894	-1.79709	303.54996	301.88297	-8.53259	357.49008	145.81978	1156.90247	-673.44122	-3.79593	605.08667	-411.88675	155.31183	602.35559	-412.73352	-1.76378	546.50830	532.82654	155.58968	537.61108	532.02032	
3767	37.660	-95.47168	46.35461	-270.86743	197.95496	52.29822	-312.16006	-185.81985	1.27493	307.85556	301.13669	-9.88748	356.00488	147.54305	1158.38220	-671.38403	-2.86256	606.16327	-409.43283	157.25456	603.32416	-410.71255	0.94058	546.02148	535.32764	158.12529	537.00507	534.43713	
